<svg width="393" height="48" viewBox="0 0 393 48" fill="none" xmlns="http://www.w3.org/2000/svg">
<path d="M51.5568 19C51.4811 18.053 51.1259 17.3144 50.4915 16.7841C49.8665 16.2538 48.9148 15.9886 47.6364 15.9886C46.822 15.9886 46.1544 16.0881 45.6335 16.2869C45.1222 16.4763 44.7434 16.7367 44.4972 17.0682C44.2509 17.3996 44.1231 17.7784 44.1136 18.2045C44.0947 18.5549 44.1563 18.8722 44.2983 19.1562C44.4498 19.4309 44.6866 19.6818 45.0085 19.9091C45.3305 20.1269 45.7424 20.3258 46.2443 20.5057C46.7462 20.6856 47.3428 20.8466 48.0341 20.9886L50.4205 21.5C52.0303 21.8409 53.4081 22.2907 54.554 22.8494C55.6998 23.4081 56.6373 24.0663 57.3665 24.8239C58.0956 25.572 58.6307 26.4148 58.9716 27.3523C59.322 28.2898 59.5019 29.3125 59.5114 30.4205C59.5019 32.3333 59.0237 33.9527 58.0767 35.2784C57.1297 36.6042 55.7756 37.6127 54.0142 38.304C52.2623 38.9953 50.1553 39.3409 47.6932 39.3409C45.1648 39.3409 42.9583 38.9669 41.0739 38.2188C39.1989 37.4706 37.7405 36.3201 36.6989 34.767C35.6667 33.2045 35.1458 31.2064 35.1364 28.7727H42.6364C42.6837 29.6629 42.9063 30.411 43.304 31.017C43.7017 31.6231 44.2604 32.0824 44.9801 32.3949C45.7093 32.7074 46.5758 32.8636 47.5795 32.8636C48.4223 32.8636 49.1278 32.7595 49.696 32.5511C50.2642 32.3428 50.6951 32.054 50.9886 31.6847C51.2822 31.3153 51.4337 30.8939 51.4432 30.4205C51.4337 29.9754 51.2869 29.5871 51.0028 29.2557C50.7282 28.9148 50.2737 28.6117 49.6392 28.3466C49.0047 28.072 48.1477 27.8163 47.0682 27.5795L44.1705 26.9545C41.5947 26.3958 39.5634 25.4631 38.0767 24.1562C36.5994 22.84 35.8655 21.0455 35.875 18.7727C35.8655 16.9261 36.358 15.3116 37.3523 13.929C38.3561 12.5369 39.7434 11.4527 41.5142 10.6761C43.2945 9.89962 45.3352 9.51136 47.6364 9.51136C49.9848 9.51136 52.0161 9.90436 53.7301 10.6903C55.4441 11.4763 56.7652 12.5843 57.6932 14.0142C58.6307 15.4347 59.1042 17.0966 59.1136 19H51.5568ZM70.4702 26.7273V39H62.6293V9.90909H70.1861V21.3295H70.4134C70.9058 19.9375 71.7249 18.8532 72.8707 18.0767C74.0166 17.2907 75.3944 16.8977 77.0043 16.8977C78.5478 16.8977 79.8878 17.2481 81.0241 17.9489C82.17 18.6496 83.0554 19.6155 83.6804 20.8466C84.3149 22.0777 84.6274 23.4886 84.6179 25.0795V39H76.777V26.7273C76.7865 25.6477 76.5166 24.8002 75.9673 24.1847C75.4276 23.5691 74.6558 23.2614 73.652 23.2614C73.0175 23.2614 72.4588 23.4034 71.9759 23.6875C71.5024 23.9621 71.133 24.3598 70.8679 24.8807C70.6122 25.392 70.4796 26.0076 70.4702 26.7273ZM99 39.3977C96.6326 39.3977 94.6061 38.929 92.9205 37.9915C91.2348 37.0445 89.9422 35.7282 89.0426 34.0426C88.143 32.3475 87.6932 30.3826 87.6932 28.1477C87.6932 25.9129 88.143 23.9527 89.0426 22.267C89.9422 20.572 91.2348 19.2557 92.9205 18.3182C94.6061 17.3712 96.6326 16.8977 99 16.8977C101.367 16.8977 103.394 17.3712 105.08 18.3182C106.765 19.2557 108.058 20.572 108.957 22.267C109.857 23.9527 110.307 25.9129 110.307 28.1477C110.307 30.3826 109.857 32.3475 108.957 34.0426C108.058 35.7282 106.765 37.0445 105.08 37.9915C103.394 38.929 101.367 39.3977 99 39.3977ZM99.0568 33.6023C99.7197 33.6023 100.293 33.3797 100.776 32.9347C101.259 32.4896 101.633 31.8551 101.898 31.0312C102.163 30.2074 102.295 29.2273 102.295 28.0909C102.295 26.9451 102.163 25.965 101.898 25.1506C101.633 24.3267 101.259 23.6922 100.776 23.2472C100.293 22.8021 99.7197 22.5795 99.0568 22.5795C98.3561 22.5795 97.7547 22.8021 97.2528 23.2472C96.7509 23.6922 96.3674 24.3267 96.1023 25.1506C95.8371 25.965 95.7045 26.9451 95.7045 28.0909C95.7045 29.2273 95.8371 30.2074 96.1023 31.0312C96.3674 31.8551 96.7509 32.4896 97.2528 32.9347C97.7547 33.3797 98.3561 33.6023 99.0568 33.6023ZM113.489 39V17.1818H121.102V21.3295H121.33C121.727 19.7955 122.357 18.6733 123.219 17.9631C124.09 17.2528 125.108 16.8977 126.273 16.8977C126.614 16.8977 126.95 16.9261 127.281 16.983C127.622 17.0303 127.949 17.1013 128.261 17.196V23.8864C127.873 23.7538 127.395 23.6544 126.827 23.5881C126.259 23.5218 125.771 23.4886 125.364 23.4886C124.597 23.4886 123.905 23.6638 123.29 24.0142C122.684 24.3551 122.205 24.8381 121.855 25.4631C121.505 26.0786 121.33 26.803 121.33 27.6364V39H113.489ZM144.742 17.1818V22.8636H130.367V17.1818H144.742ZM133.151 11.9545H140.992V31.983C140.992 32.286 141.044 32.5417 141.148 32.75C141.253 32.9489 141.414 33.1004 141.631 33.2045C141.849 33.2992 142.129 33.3466 142.469 33.3466C142.706 33.3466 142.981 33.3182 143.293 33.2614C143.615 33.2045 143.852 33.1572 144.004 33.1193L145.14 38.6307C144.79 38.7348 144.288 38.8627 143.634 39.0142C142.99 39.1657 142.223 39.2652 141.333 39.3125C139.534 39.4072 138.023 39.2225 136.802 38.7585C135.58 38.285 134.662 37.5417 134.046 36.5284C133.431 35.5152 133.132 34.2462 133.151 32.7216V11.9545ZM158.162 39.3977C155.832 39.3977 153.825 38.9527 152.139 38.0625C150.463 37.1629 149.17 35.875 148.261 34.1989C147.362 32.5133 146.912 30.4962 146.912 28.1477C146.912 25.8939 147.366 23.9242 148.276 22.2386C149.185 20.553 150.468 19.2415 152.125 18.304C153.782 17.3665 155.738 16.8977 157.991 16.8977C159.639 16.8977 161.131 17.1534 162.466 17.6648C163.801 18.1761 164.942 18.9195 165.889 19.8949C166.836 20.8608 167.565 22.035 168.077 23.4176C168.588 24.8002 168.844 26.358 168.844 28.0909V29.9091H149.355V25.5909H161.628C161.618 24.9659 161.457 24.4167 161.145 23.9432C160.842 23.4602 160.43 23.0862 159.909 22.821C159.398 22.5464 158.815 22.4091 158.162 22.4091C157.527 22.4091 156.945 22.5464 156.415 22.821C155.884 23.0862 155.458 23.4555 155.136 23.929C154.824 24.4025 154.658 24.9564 154.639 25.5909V30.25C154.639 30.9508 154.786 31.5758 155.08 32.125C155.373 32.6742 155.795 33.1051 156.344 33.4176C156.893 33.7301 157.556 33.8864 158.332 33.8864C158.872 33.8864 159.365 33.8106 159.81 33.6591C160.264 33.5076 160.652 33.2898 160.974 33.0057C161.296 32.7121 161.533 32.3617 161.685 31.9545H168.844C168.598 33.4697 168.015 34.786 167.097 35.9034C166.178 37.0114 164.961 37.8731 163.446 38.4886C161.94 39.0947 160.179 39.3977 158.162 39.3977ZM191.987 24.2841H184.771C184.733 23.839 184.576 23.4555 184.302 23.1335C184.027 22.8116 183.672 22.5653 183.237 22.3949C182.81 22.215 182.337 22.125 181.816 22.125C181.144 22.125 180.566 22.2481 180.083 22.4943C179.6 22.7405 179.363 23.0909 179.373 23.5455C179.363 23.8674 179.501 24.1657 179.785 24.4403C180.078 24.715 180.642 24.928 181.475 25.0795L185.907 25.875C188.142 26.2822 189.804 26.9687 190.893 27.9347C191.991 28.8911 192.545 30.1742 192.555 31.7841C192.545 33.3371 192.081 34.6866 191.163 35.8324C190.254 36.9687 189.008 37.8494 187.427 38.4744C185.855 39.09 184.06 39.3977 182.043 39.3977C178.71 39.3977 176.101 38.7159 174.217 37.3523C172.342 35.9886 171.295 34.1894 171.077 31.9545H178.862C178.966 32.6458 179.307 33.1809 179.884 33.5597C180.471 33.929 181.21 34.1136 182.1 34.1136C182.82 34.1136 183.412 33.9905 183.876 33.7443C184.349 33.4981 184.591 33.1477 184.6 32.6932C184.591 32.2765 184.382 31.9451 183.975 31.6989C183.577 31.4527 182.952 31.2538 182.1 31.1023L178.237 30.4205C176.011 30.0322 174.344 29.2936 173.237 28.2045C172.129 27.1155 171.579 25.714 171.589 24C171.579 22.4848 171.977 21.2017 172.782 20.1506C173.596 19.09 174.756 18.285 176.262 17.7358C177.777 17.1771 179.572 16.8977 181.646 16.8977C184.799 16.8977 187.285 17.5511 189.103 18.858C190.931 20.1648 191.892 21.9735 191.987 24.2841ZM208.57 17.1818V22.8636H194.195V17.1818H208.57ZM196.979 11.9545H204.82V31.983C204.82 32.286 204.872 32.5417 204.977 32.75C205.081 32.9489 205.242 33.1004 205.46 33.2045C205.677 33.2992 205.957 33.3466 206.298 33.3466C206.534 33.3466 206.809 33.3182 207.121 33.2614C207.443 33.2045 207.68 33.1572 207.832 33.1193L208.968 38.6307C208.618 38.7348 208.116 38.8627 207.462 39.0142C206.818 39.1657 206.051 39.2652 205.161 39.3125C203.362 39.4072 201.852 39.2225 200.63 38.7585C199.408 38.285 198.49 37.5417 197.874 36.5284C197.259 35.5152 196.96 34.2462 196.979 32.7216V11.9545ZM231.614 9.90909H239.398V29.8523C239.388 31.7462 238.91 33.4129 237.963 34.8523C237.026 36.2822 235.728 37.3996 234.071 38.2045C232.423 39 230.525 39.3977 228.375 39.3977C226.509 39.3977 224.805 39.0758 223.261 38.4318C221.718 37.7784 220.487 36.7557 219.568 35.3636C218.65 33.9621 218.195 32.1439 218.205 29.9091H226.102C226.131 30.6383 226.254 31.2538 226.472 31.7557C226.699 32.2576 227.011 32.6364 227.409 32.892C227.816 33.1383 228.309 33.2614 228.886 33.2614C229.473 33.2614 229.966 33.1335 230.364 32.8778C230.771 32.6222 231.079 32.2434 231.287 31.7415C231.495 31.2301 231.604 30.6004 231.614 29.8523V9.90909ZM253.766 39.3977C251.398 39.3977 249.372 38.929 247.686 37.9915C246 37.0445 244.708 35.7282 243.808 34.0426C242.909 32.3475 242.459 30.3826 242.459 28.1477C242.459 25.9129 242.909 23.9527 243.808 22.267C244.708 20.572 246 19.2557 247.686 18.3182C249.372 17.3712 251.398 16.8977 253.766 16.8977C256.133 16.8977 258.16 17.3712 259.845 18.3182C261.531 19.2557 262.823 20.572 263.723 22.267C264.623 23.9527 265.072 25.9129 265.072 28.1477C265.072 30.3826 264.623 32.3475 263.723 34.0426C262.823 35.7282 261.531 37.0445 259.845 37.9915C258.16 38.929 256.133 39.3977 253.766 39.3977ZM253.822 33.6023C254.485 33.6023 255.058 33.3797 255.541 32.9347C256.024 32.4896 256.398 31.8551 256.663 31.0312C256.929 30.2074 257.061 29.2273 257.061 28.0909C257.061 26.9451 256.929 25.965 256.663 25.1506C256.398 24.3267 256.024 23.6922 255.541 23.2472C255.058 22.8021 254.485 22.5795 253.822 22.5795C253.122 22.5795 252.52 22.8021 252.018 23.2472C251.517 23.6922 251.133 24.3267 250.868 25.1506C250.603 25.965 250.47 26.9451 250.47 28.0909C250.47 29.2273 250.603 30.2074 250.868 31.0312C251.133 31.8551 251.517 32.4896 252.018 32.9347C252.52 33.3797 253.122 33.6023 253.822 33.6023ZM268.141 39V9.90909H275.982V20.9886H276.095C276.379 20.25 276.796 19.5729 277.345 18.9574C277.894 18.3324 278.576 17.8352 279.391 17.4659C280.205 17.0871 281.152 16.8977 282.232 16.8977C283.671 16.8977 285.039 17.2812 286.337 18.0483C287.643 18.8153 288.704 20.0227 289.518 21.6705C290.342 23.3182 290.754 25.4583 290.754 28.0909C290.754 30.6098 290.361 32.6979 289.575 34.3551C288.799 36.0123 287.757 37.2481 286.45 38.0625C285.153 38.8769 283.728 39.2841 282.175 39.2841C281.152 39.2841 280.238 39.1184 279.433 38.7869C278.638 38.446 277.956 37.9867 277.388 37.4091C276.829 36.822 276.398 36.1591 276.095 35.4205H275.925V39H268.141ZM275.811 28.0909C275.811 29.1515 275.948 30.0701 276.223 30.8466C276.507 31.6136 276.905 32.2102 277.416 32.6364C277.937 33.053 278.557 33.2614 279.277 33.2614C279.997 33.2614 280.607 33.0578 281.109 32.6506C281.621 32.2339 282.009 31.642 282.274 30.875C282.549 30.0985 282.686 29.1705 282.686 28.0909C282.686 27.0114 282.549 26.0881 282.274 25.321C282.009 24.5445 281.621 23.9527 281.109 23.5455C280.607 23.1288 279.997 22.9205 279.277 22.9205C278.557 22.9205 277.937 23.1288 277.416 23.5455C276.905 23.9527 276.507 24.5445 276.223 25.321C275.948 26.0881 275.811 27.0114 275.811 28.0909Z" fill="#4EA8DE"/>
<path d="M301.891 39V9.90909H322.345V16.2727H309.788V21.2727H321.095V27.6364H309.788V39H301.891ZM325.364 39V17.1818H333.205V39H325.364ZM329.284 14.9091C328.223 14.9091 327.314 14.5587 326.557 13.858C325.799 13.1572 325.42 12.3144 325.42 11.3295C325.42 10.3447 325.799 9.50189 326.557 8.80114C327.314 8.10038 328.223 7.75 329.284 7.75C330.354 7.75 331.263 8.10038 332.011 8.80114C332.769 9.50189 333.148 10.3447 333.148 11.3295C333.148 12.3144 332.769 13.1572 332.011 13.858C331.263 14.5587 330.354 14.9091 329.284 14.9091ZM337.2 39V17.1818H344.813V21.3295H345.04C345.438 19.7955 346.068 18.6733 346.93 17.9631C347.801 17.2528 348.819 16.8977 349.984 16.8977C350.325 16.8977 350.661 16.9261 350.992 16.983C351.333 17.0303 351.66 17.1013 351.972 17.196V23.8864C351.584 23.7538 351.106 23.6544 350.538 23.5881C349.969 23.5218 349.482 23.4886 349.075 23.4886C348.308 23.4886 347.616 23.6638 347.001 24.0142C346.395 24.3551 345.916 24.8381 345.566 25.4631C345.216 26.0786 345.04 26.803 345.04 27.6364V39H337.2ZM374.487 24.2841H367.271C367.233 23.839 367.076 23.4555 366.802 23.1335C366.527 22.8116 366.172 22.5653 365.737 22.3949C365.31 22.215 364.837 22.125 364.316 22.125C363.644 22.125 363.066 22.2481 362.583 22.4943C362.1 22.7405 361.863 23.0909 361.873 23.5455C361.863 23.8674 362.001 24.1657 362.285 24.4403C362.578 24.715 363.142 24.928 363.975 25.0795L368.407 25.875C370.642 26.2822 372.304 26.9687 373.393 27.9347C374.491 28.8911 375.045 30.1742 375.055 31.7841C375.045 33.3371 374.581 34.6866 373.663 35.8324C372.754 36.9687 371.508 37.8494 369.927 38.4744C368.355 39.09 366.56 39.3977 364.543 39.3977C361.21 39.3977 358.601 38.7159 356.717 37.3523C354.842 35.9886 353.795 34.1894 353.577 31.9545H361.362C361.466 32.6458 361.807 33.1809 362.384 33.5597C362.971 33.929 363.71 34.1136 364.6 34.1136C365.32 34.1136 365.912 33.9905 366.376 33.7443C366.849 33.4981 367.091 33.1477 367.1 32.6932C367.091 32.2765 366.882 31.9451 366.475 31.6989C366.077 31.4527 365.452 31.2538 364.6 31.1023L360.737 30.4205C358.511 30.0322 356.844 29.2936 355.737 28.2045C354.629 27.1155 354.079 25.714 354.089 24C354.079 22.4848 354.477 21.2017 355.282 20.1506C356.096 19.09 357.256 18.285 358.762 17.7358C360.277 17.1771 362.072 16.8977 364.146 16.8977C367.299 16.8977 369.785 17.5511 371.603 18.858C373.431 20.1648 374.392 21.9735 374.487 24.2841ZM391.07 17.1818V22.8636H376.695V17.1818H391.07ZM379.479 11.9545H387.32V31.983C387.32 32.286 387.372 32.5417 387.477 32.75C387.581 32.9489 387.742 33.1004 387.96 33.2045C388.177 33.2992 388.457 33.3466 388.798 33.3466C389.034 33.3466 389.309 33.3182 389.621 33.2614C389.943 33.2045 390.18 33.1572 390.332 33.1193L391.468 38.6307C391.118 38.7348 390.616 38.8627 389.962 39.0142C389.318 39.1657 388.551 39.2652 387.661 39.3125C385.862 39.4072 384.352 39.2225 383.13 38.7585C381.908 38.285 380.99 37.5417 380.374 36.5284C379.759 35.5152 379.46 34.2462 379.479 32.7216V11.9545Z" fill="#5E60CE"/>
<g clip-path="url(#clip0_1_67)">
<path d="M11.0215 12.933C14.1472 16.9011 15.8157 21.7944 15.7552 26.8155V28.0141L16.7865 28.6416C18.1189 29.4482 19.1126 30.6993 19.5866 32.1669C19.1705 31.8605 18.7351 31.5803 18.2832 31.3278L15.5332 29.7838L15.0391 32.9001C14.9963 33.1755 14.9389 33.4485 14.8672 33.718H7.16146C7.04688 33.3655 6.95378 33.0129 6.86784 32.6463L6.24479 29.8261L3.70964 31.2362C3.2861 31.473 2.87718 31.7344 2.48503 32.0188C2.9682 30.5682 3.94119 29.3242 5.24219 28.4935L6.22331 27.866V26.7521C6.24101 21.7513 7.92963 16.8952 11.0286 12.933H11.0215ZM11.0286 10C10.8679 10.0004 10.7128 10.058 10.5918 10.1622L10.5273 10.2186C6.39774 14.7656 4.10462 20.6454 4.08203 26.745C2.32962 27.8643 1.03246 29.5543 0.417218 31.5197C-0.198024 33.485 -0.0922176 35.6007 0.716149 37.4971C1.56772 35.6455 2.99126 34.1058 4.78386 33.0975C4.96364 33.8642 5.20306 34.6161 5.5 35.3467C5.53766 35.4871 5.62114 35.6114 5.73759 35.7006C5.85404 35.7898 5.99701 35.8388 6.14453 35.8402H16.0846C16.2852 35.8402 16.4857 35.6498 16.5859 35.3537C16.8758 34.6592 17.0778 33.9322 17.1875 33.1892C18.9835 34.1932 20.4082 35.7342 21.2552 37.5887C22.1124 35.7017 22.2451 33.5727 21.6287 31.5967C21.0123 29.6206 19.6888 27.9319 17.9036 26.8437C17.9745 20.7082 15.6935 14.7718 11.5156 10.2186C11.4534 10.1501 11.3773 10.0952 11.2921 10.0576C11.207 10.0199 11.1148 10.0003 11.0215 10H11.0286Z" fill="#4EA8DE"/>
<path d="M11.0215 26.1598C10.4714 26.1598 9.93368 25.9995 9.47603 25.699C9.01839 25.3986 8.66133 24.9715 8.44986 24.4716C8.23839 23.9716 8.18198 23.4213 8.28774 22.8898C8.3935 22.3584 8.6567 21.8697 9.04416 21.4853C9.43161 21.1009 9.92598 20.838 10.465 20.7298C11.0039 20.6216 11.5634 20.6729 12.0728 20.8773C12.5822 21.0816 13.0187 21.4298 13.3274 21.8781C13.6361 22.3263 13.8031 22.8545 13.8073 23.396C13.8159 23.7469 13.7541 24.0961 13.6256 24.4235C13.497 24.751 13.3042 25.0503 13.0581 25.3043C12.8121 25.5583 12.5176 25.7622 12.1915 25.9041C11.8653 26.0461 11.514 26.1234 11.1576 26.1316C11.1125 26.1387 11.0666 26.1387 11.0215 26.1316V26.1598Z" fill="#4EA8DE"/>
<path d="M14.8958 37.5958C14.7166 37.5901 14.5381 37.6198 14.3707 37.683C14.2033 37.7462 14.0504 37.8416 13.921 37.9638C13.7916 38.086 13.6883 38.2323 13.6171 38.3943C13.5459 38.5563 13.5083 38.7307 13.5065 38.9072V43.067C13.5065 43.4297 13.6529 43.7776 13.9134 44.0342C14.174 44.2907 14.5274 44.4348 14.8958 44.4348C15.2643 44.4348 15.6177 44.2907 15.8782 44.0342C16.1388 43.7776 16.2852 43.4297 16.2852 43.067V38.9636C16.2909 38.7877 16.261 38.6126 16.1973 38.4482C16.1335 38.2839 16.0372 38.1337 15.9138 38.0064C15.7905 37.879 15.6427 37.7772 15.479 37.7067C15.3153 37.6362 15.139 37.5985 14.9603 37.5958H14.8958Z" fill="#5E60CE"/>
<path d="M7.16146 37.5958C6.97923 37.5863 6.79692 37.613 6.62538 37.6743C6.45384 37.7356 6.29658 37.8302 6.16295 37.9526C6.02932 38.0749 5.92205 38.2225 5.84753 38.3865C5.77301 38.5505 5.73276 38.7275 5.72917 38.9072V43.067C5.72917 43.4297 5.87555 43.7777 6.13609 44.0342C6.39664 44.2907 6.75002 44.4348 7.11849 44.4348C7.48697 44.4348 7.84035 44.2907 8.10089 44.0342C8.36144 43.7777 8.50782 43.4297 8.50782 43.067V38.9636C8.51354 38.7877 8.48366 38.6126 8.41991 38.4482C8.35616 38.2839 8.25982 38.1337 8.1365 38.0064C8.01319 37.879 7.86537 37.7772 7.70165 37.7067C7.53794 37.6362 7.36161 37.5985 7.18295 37.5958H7.16146Z" fill="#5E60CE"/>
<path d="M10.9212 37.5958C10.7425 37.592 10.5648 37.623 10.3983 37.6869C10.2318 37.7507 10.0796 37.8463 9.95061 37.9681C9.82159 38.0899 9.71821 38.2355 9.64636 38.3966C9.57452 38.5577 9.53563 38.7312 9.53191 38.9072V44.6392C9.53191 45.002 9.67828 45.3499 9.93883 45.6064C10.1994 45.8629 10.5528 46.007 10.9212 46.007C11.2897 46.007 11.6431 45.8629 11.9036 45.6064C12.1642 45.3499 12.3106 45.002 12.3106 44.6392V38.9988C12.3163 38.823 12.2864 38.6478 12.2226 38.4835C12.1589 38.3191 12.0626 38.1689 11.9392 38.0416C11.8159 37.9143 11.6681 37.8124 11.5044 37.7419C11.3407 37.6714 11.1643 37.6337 10.9857 37.631L10.9212 37.5958Z" fill="#5E60CE"/>
</g>
<defs>
<clipPath id="clip0_1_67">
<rect width="22" height="36" fill="white" transform="translate(0 10)"/>
</clipPath>
</defs>
</svg>
